<?xml version="1.0" encoding="utf-8"?>
<!-- Generator: Adobe Illustrator 19.1.0, SVG Export Plug-In . SVG Version: 6.00 Build 0)  -->
<svg version="1.1" id="Layer_1" xmlns="http://www.w3.org/2000/svg" xmlns:xlink="http://www.w3.org/1999/xlink" x="0px" y="0px"
	 viewBox="0 0 564.4 562.6" style="enable-background:new 0 0 564.4 562.6;" xml:space="preserve">
<style type="text/css">
	.st0{fill:#EDE813;}
	.st1{fill:#C4D600;}
</style>
<g>
	<g>
		<path class="st0" d="M67.4,487.9c1.5,2.6,3.5,4.6,5.9,5.8c2.4,1.3,5.1,1.9,8.2,1.9c1.9,0,3.7-0.3,5.4-0.9c1.7-0.6,3.1-1.4,4.4-2.4
			c1.2-1,2.2-2.3,3-3.8c0.7-1.5,1.1-3.1,1.1-5c0-2.1-0.4-3.9-1.3-5.3c-0.9-1.4-2.1-2.5-3.6-3.4c-1.5-0.9-3.2-1.7-5.1-2.3
			c-1.9-0.6-3.8-1.3-5.8-1.9c-2-0.6-3.9-1.4-5.8-2.2c-1.9-0.8-3.6-1.9-5.1-3.2c-1.5-1.3-2.7-2.9-3.6-4.9c-0.9-2-1.3-4.4-1.3-7.3
			c0-2.7,0.5-5.1,1.6-7.3c1.1-2.1,2.5-3.9,4.3-5.3c1.8-1.4,3.9-2.5,6.3-3.2c2.4-0.7,4.9-1.1,7.5-1.1c3.4,0,6.5,0.6,9.3,1.8
			c2.9,1.2,5.3,3.2,7.4,6l-5,3.6c-1.4-2-3.1-3.5-5.1-4.6c-1.9-1-4.2-1.5-6.9-1.5c-1.9,0-3.6,0.2-5.3,0.7c-1.7,0.5-3.1,1.2-4.4,2.2
			c-1.2,1-2.2,2.2-3,3.6c-0.8,1.4-1.1,3.2-1.1,5.1c0,3.1,0.8,5.4,2.3,7.1c1.6,1.7,3.5,3,5.9,3.9c2.3,1,4.9,1.8,7.7,2.5
			c2.8,0.7,5.3,1.7,7.7,2.9c2.3,1.2,4.3,2.9,5.9,5.1c1.6,2.2,2.3,5.2,2.3,9c0,2.8-0.5,5.2-1.6,7.4c-1,2.1-2.4,4-4.2,5.4
			c-1.8,1.5-3.8,2.6-6.1,3.3c-2.3,0.8-4.7,1.1-7.2,1.1c-4.1,0-7.8-0.7-11.2-2.1c-3.4-1.4-6.3-3.8-8.8-7.2L67.4,487.9z"/>
		<path class="st0" d="M176.6,499.3h-33.9c-4.3,0-8.4-0.8-12.3-2.3c-3.9-1.5-7.3-3.6-10.3-6.4c-3-2.8-5.3-6.1-7.1-10
			c-1.8-3.9-2.7-8.2-2.7-13c0-4.5,0.7-8.6,2.2-12.5c1.5-3.9,3.6-7.2,6.3-10c2.7-2.8,6-5,9.8-6.7c3.9-1.6,8.2-2.4,12.9-2.4
			c4.8,0,9.1,0.8,12.9,2.4c3.9,1.6,7.1,3.8,9.8,6.7c2.7,2.8,4.8,6.1,6.3,10c1.5,3.9,2.2,8,2.2,12.5c0,2.7-0.3,5.4-1,8.1
			c-0.7,2.7-1.7,5.2-3,7.6c-1.3,2.4-3,4.5-4.9,6.3c-1.9,1.8-4.1,3.2-6.4,4.1v0.2h19.2V499.3z M116.1,467.8c0,3.6,0.7,7,2,10.2
			c1.3,3.2,3.1,6,5.5,8.4c2.3,2.4,5.1,4.3,8.3,5.7c3.2,1.4,6.8,2.1,10.7,2.1c3.9,0,7.4-0.7,10.5-2.2c3-1.5,5.6-3.4,7.7-5.9
			c2.1-2.4,3.7-5.2,4.7-8.4c1.1-3.2,1.6-6.4,1.6-9.9c0-3.7-0.6-7.2-1.7-10.4c-1.2-3.2-2.8-6-5-8.4c-2.2-2.4-4.8-4.2-8-5.6
			c-3.2-1.3-6.7-2-10.7-2c-4,0-7.6,0.7-10.7,2c-3.2,1.3-5.8,3.2-8,5.6c-2.2,2.4-3.8,5.2-5,8.4C116.7,460.6,116.1,464.1,116.1,467.8z
			"/>
		<path class="st0" d="M230.9,475.8c0,3.3-0.4,6.5-1.1,9.5c-0.8,3-2,5.7-3.8,8c-1.8,2.3-4.1,4.2-7,5.6c-2.9,1.4-6.4,2.1-10.6,2.1
			c-4.2,0-7.7-0.7-10.6-2.1c-2.9-1.4-5.2-3.2-7-5.6c-1.8-2.3-3-5-3.8-8c-0.8-3-1.1-6.2-1.1-9.5v-38h5.7v36.5c0,2.2,0.2,4.6,0.6,7
			c0.4,2.5,1.2,4.8,2.4,7c1.2,2.1,2.9,3.9,5,5.3c2.2,1.4,5.1,2.1,8.7,2.1s6.5-0.7,8.7-2.1c2.2-1.4,3.9-3.2,5-5.3
			c1.2-2.1,2-4.5,2.4-7c0.4-2.5,0.6-4.8,0.6-7v-36.5h5.7V475.8z"/>
		<path class="st0" d="M246.9,437.8h37.6v5.2h-31.9v21.9h29.9v5.2h-29.9v24h33.3v5.2h-39V437.8z"/>
		<path class="st0" d="M298.7,437.8h37.6v5.2h-31.9v21.9h29.9v5.2h-29.9v24h33.3v5.2h-39V437.8z"/>
		<path class="st0" d="M344.1,494.8l36-51.8h-35.5v-5.2h42.9v4.7l-36.3,51.6h37.2v5.2h-44.3V494.8z"/>
		<path class="st0" d="M399.1,437.8h37.6v5.2h-31.9v21.9h29.9v5.2h-29.9v24h33.3v5.2h-39V437.8z"/>
		<path class="st0" d="M450.1,437.8h19c5.3,0,9.9,0.7,13.6,2c3.7,1.3,6.8,3,9.3,5c2.5,2,4.4,4.3,5.8,6.7c1.4,2.5,2.5,4.8,3.1,7.1
			c0.7,2.3,1.1,4.3,1.3,6.1c0.2,1.8,0.3,3.1,0.3,3.9c0,0.8-0.1,2-0.3,3.9c-0.2,1.8-0.6,3.9-1.3,6.1c-0.7,2.3-1.7,4.6-3.1,7.1
			c-1.4,2.5-3.4,4.7-5.8,6.7c-2.5,2-5.6,3.7-9.3,5c-3.7,1.3-8.2,2-13.6,2h-19V437.8z M455.9,494.1h11.8c4.1,0,7.9-0.5,11.4-1.5
			c3.5-1,6.6-2.6,9.2-4.7s4.7-4.7,6.2-8c1.5-3.2,2.3-7,2.3-11.4c0-4.4-0.8-8.2-2.3-11.4c-1.5-3.2-3.6-5.9-6.2-8
			c-2.6-2.1-5.7-3.6-9.2-4.7c-3.5-1-7.3-1.5-11.4-1.5h-11.8V494.1z"/>
	</g>
</g>
<g>
	<path class="st1" d="M111.4,357.1h36.9v5.2h-31.1v21.9h29v5.2h-29v29.2h-5.7V357.1z"/>
	<path class="st1" d="M160,357.1h16.2c0.8,0,1.9,0,3.3,0.1c1.4,0.1,2.9,0.2,4.5,0.5c1.6,0.3,3.3,0.8,5,1.4c1.7,0.6,3.2,1.6,4.5,2.8
		c1.3,1.2,2.4,2.8,3.3,4.6c0.9,1.9,1.3,4.1,1.3,6.8c0,3-0.5,5.4-1.5,7.3c-1,1.9-2.3,3.5-3.8,4.7c-1.5,1.2-3.2,2.1-5.1,2.7
		c-1.9,0.6-3.6,1-5.3,1.2l17.9,29.6h-6.5l-17.3-29.2h-10.7v29.2H160V357.1z M165.7,384.2h12.2c3,0,5.5-0.4,7.3-1.1
		c1.9-0.8,3.3-1.7,4.4-2.8c1-1.1,1.8-2.3,2.1-3.6c0.4-1.3,0.6-2.4,0.6-3.5c0-1-0.2-2.2-0.6-3.5c-0.4-1.3-1.1-2.5-2.1-3.6
		c-1-1.1-2.5-2-4.4-2.8c-1.9-0.8-4.3-1.1-7.3-1.1h-12.2V384.2z"/>
	<path class="st1" d="M211.8,357.1h37.6v5.2h-31.9v21.9h29.9v5.2h-29.9v24h33.3v5.2h-39V357.1z"/>
	<path class="st1" d="M265.2,407.3c1.5,2.6,3.5,4.6,5.9,5.8c2.4,1.3,5.1,1.9,8.2,1.9c1.9,0,3.7-0.3,5.4-0.9c1.7-0.6,3.1-1.4,4.4-2.4
		c1.2-1,2.2-2.3,3-3.8c0.7-1.5,1.1-3.1,1.1-5c0-2.1-0.4-3.9-1.3-5.3c-0.9-1.4-2.1-2.5-3.6-3.4c-1.5-0.9-3.2-1.7-5.1-2.3
		c-1.9-0.6-3.8-1.3-5.8-1.9c-2-0.6-3.9-1.4-5.8-2.2c-1.9-0.8-3.6-1.9-5.1-3.2c-1.5-1.3-2.7-2.9-3.6-4.9c-0.9-2-1.3-4.4-1.3-7.3
		c0-2.7,0.5-5.1,1.6-7.3c1.1-2.1,2.5-3.9,4.3-5.3c1.8-1.4,3.9-2.5,6.3-3.2c2.4-0.7,4.9-1.1,7.5-1.1c3.4,0,6.5,0.6,9.3,1.8
		c2.9,1.2,5.3,3.2,7.4,6l-5,3.6c-1.5-2-3.1-3.5-5.1-4.6c-1.9-1-4.2-1.5-6.9-1.5c-1.9,0-3.6,0.2-5.3,0.7c-1.7,0.5-3.1,1.2-4.4,2.2
		c-1.2,1-2.2,2.2-3,3.6c-0.8,1.4-1.1,3.2-1.1,5.1c0,3.1,0.8,5.4,2.3,7.1c1.6,1.7,3.5,3,5.9,3.9c2.3,1,4.9,1.8,7.7,2.5
		c2.8,0.7,5.3,1.7,7.7,2.9c2.3,1.2,4.3,2.9,5.9,5.1c1.6,2.2,2.3,5.2,2.3,9c0,2.8-0.5,5.2-1.6,7.4c-1,2.1-2.4,4-4.2,5.4
		c-1.8,1.5-3.8,2.6-6.1,3.3c-2.3,0.8-4.7,1.1-7.2,1.1c-4.1,0-7.8-0.7-11.2-2.1c-3.4-1.4-6.3-3.8-8.8-7.2L265.2,407.3z"/>
	<path class="st1" d="M312.2,357.1h5.7v27.1h34.4v-27.1h5.7v61.6h-5.7v-29.2h-34.4v29.2h-5.7V357.1z"/>
	<path class="st1" d="M375.2,357.1h5.7v56.3h28.7v5.2h-34.4V357.1z"/>
	<path class="st1" d="M423,392.1l-22.6-35h6.9l18.6,29.2l19-29.2h6.4l-22.6,35v26.5H423V392.1z"/>
</g>
<path class="st0" d="M430.7,193.2c-5.1-15.4-15.1-24.9-31.8-25.7c-5.1-0.2-10.2,0.4-15.6,0.7c-0.1-0.2-0.2-0.5-0.3-0.9
	c-6.3-31.8-21.9-58-47.4-78C306,66.1,272.2,57.6,235.1,63.6c-30.2,4.8-55.7,19.1-75.7,42.2c-26.9,31.1-36.7,67.4-29.8,107.8
	c5.4,31.4,21.1,57.2,46,77.3c28.7,23.2,61.7,32.2,98.1,27.5c32.6-4.2,59.6-19.5,81.1-44.5c0.8-0.9,2.2-1.6,3.4-1.7
	c15.5-1.5,30.3-5,44.3-12.1C427.6,247.3,439.5,219.9,430.7,193.2z M140.1,177.5c2.7-22.4,11-42.5,25.3-60c2.6-3.3,5.1-3.4,8.1-0.4
	c19.5,19.4,39,38.9,58.3,58.4c1.3,1.3,2,3.9,1.7,5.6c-0.4,2.6-2.9,3-5.4,3c-13.6-0.1-27.3,0-40.9,0c-13.6,0-27.3,0-40.9,0
	C141.3,184.1,139.5,182.4,140.1,177.5z M173.8,263.8c-3.4,3.4-5.7,3.3-8.7-0.4c-14-17.4-22.2-37.3-25-59.4c-0.6-5.1,1.1-6.9,6.2-6.9
	c13.5,0,27.1,0,40.6,0c13.5,0,27.1,0,40.6,0c2.6,0,5,0.2,6.1,3.1c1.1,2.7-0.6,4.3-2.2,5.9C212.2,225.4,193,244.6,173.8,263.8z
	 M249.9,300.1c0,5.8-2.1,7.4-7.8,6.6c-21.7-2.8-41.1-11-58.2-24.5c-4.2-3.3-4.3-5.5-0.6-9.1c19.2-19.2,38.4-38.4,57.6-57.7
	c1.6-1.6,3.2-3.2,5.9-2.1c2.7,1.2,3.1,3.4,3.1,5.9c0,13.5,0,27.1,0,40.6C249.9,273.2,249.9,286.7,249.9,300.1z M249.9,121.4
	c0,13.2,0,26.4,0,39.6c0,1.3,0,2.8-0.4,4c-1.1,3.5-4.5,4.4-7.2,2.1c-0.5-0.4-1-0.9-1.5-1.4c-19.1-19.1-38.3-38.3-57.4-57.4
	c-3.7-3.7-3.6-5.9,0.5-9.2c17.7-14,37.8-22.2,60.2-24.8c3.7-0.4,5.8,1.7,5.8,6.2C249.9,94.1,249.9,107.8,249.9,121.4z M338.7,117.7
	c3.7-3.7,5.8-3.5,9.1,0.5c9.2,11.2,17.1,23.2,20.5,37.6c1,4.1,1.7,8.2,2.2,12.4c0.5,3.8-1.8,6.1-4.9,7.7c-15.4,8-31.6,13.1-49,14
	c-2.6,0.1-5.2,0.2-7.8,0.4c0,0.1,0-0.1,0,0c-8.1-0.9-16.3-1.5-24.4-2.4c-1.3-0.2-2.7-0.6-3.9-1.2c-4.3-2.3-4.8-6-1.5-9.4
	c5.7-5.8,11.6-11.6,17.3-17.4C310.5,145.8,324.6,131.7,338.7,117.7z M262.9,121.5c0-13.6,0-27.3,0-40.9c0-5.1,2-6.6,7-6
	c21.9,2.7,41.5,10.9,58.9,24.6c4.2,3.3,4.3,5.4,0.5,9.2c-19.2,19.2-38.4,38.4-57.7,57.7c-1.7,1.7-3.3,3.2-5.9,2.1
	c-2.5-1.1-2.9-3.2-2.9-5.6C262.9,148.8,262.9,135.1,262.9,121.5z M334.4,277.5c-10,9.1-21.3,16.1-33.8,21.3
	c-9.9,4.1-20.2,6.6-30.8,8c-4.8,0.6-6.8-1.1-6.8-5.9c0-14.2,0-28.4,0-42.7c0-14.3-0.1-28.7,0.1-43c0-0.4,0.1-0.8,0.3-1.2
	c0.8-1.7,3.1-2.2,4.5-0.9c0.2,0.2,0.3,0.4,0.5,0.6c14.2,25.3,35.9,41.7,62.4,52.5c1.7,0.7,3.4,1.4,4.7,2.6
	C337.7,271.1,337.2,274.9,334.4,277.5z M404.1,238.2c-10.7,9.1-23.6,12.8-37.1,14.8c-26.9,4-49.7-4.6-68.9-23.3
	c-5.1-5-9.8-10.4-14.5-15.8c-1.8-2.1-3.2-4.7-4.3-7.3c-0.5-1.1-0.4-3.1,0.3-3.9c0.7-0.9,2.7-1.7,3.8-1.4
	c28.2,7.8,54.6,0.8,80.4-10.2c7.7-3.3,15.2-6.8,23.7-8.2c17.6-2.7,31.7,9,31.7,29.2C418.9,221.7,412.9,230.7,404.1,238.2z"/>
</svg>
