<?xml version="1.0" encoding="utf-8"?>
<!-- Generator: Adobe Illustrator 19.1.0, SVG Export Plug-In . SVG Version: 6.00 Build 0)  -->
<svg version="1.1" id="Layer_1" xmlns="http://www.w3.org/2000/svg" xmlns:xlink="http://www.w3.org/1999/xlink" x="0px" y="0px"
	 viewBox="0 0 445.5 274.3" style="enable-background:new 0 0 445.5 274.3;" xml:space="preserve">
<style type="text/css">
	.st0{fill:#B03E88;}
	.st1{fill:#EAE958;}
</style>
<path class="st0" d="M62.6,71.5c4.2-2.3,8.4-3.7,12.6-4.2c4.3-0.5,8.5-0.5,12.6,0c4.2,0.4,8.2,1.1,12.1,2c3.9,0.9,7.6,1.6,11.1,2
	c3.5,0.4,6.7,0.4,9.6,0c2.9-0.4,5.5-1.8,7.7-4.2c-1.9,3.2-4,5.7-6.3,7.5c-2.2,1.8-4.6,3.1-7,3.8c-2.5,0.8-5,1.1-7.6,1
	c-2.6-0.1-5.3-0.4-8-0.9c-1.8,0.8-3.5,2.3-4.9,4.5c-1.4,2.3-2.8,5-4.1,8.3c-1.3,3.2-2.5,6.8-3.7,10.7c-1.2,3.9-2.5,7.8-3.9,11.7
	h10.2l-0.9,3.1H81.8c-1.3,3.6-2.8,7-4.3,10.2c-1.5,3.2-3.3,6.1-5.3,8.6c-2,2.5-4.2,4.5-6.7,5.9c-2.5,1.5-5.3,2.2-8.4,2.2
	c-1.6,0-3.2-0.2-4.7-0.7s-2.8-1.1-3.8-2.1c-1-1-1.7-2.2-2.1-3.8c-0.4-1.5-0.3-3.4,0.4-5.7c0.4-1.5,1.2-2.7,2.3-3.5
	c1.1-0.9,2.3-1.4,3.6-1.7c1.3-0.3,2.6-0.3,3.9,0c1.3,0.3,2.4,0.7,3.2,1.5c0.8,0.7,1.3,1.7,1.4,2.8c0.1,1.2-0.3,2.5-1.3,4
	c-0.8-0.7-1.6-1-2.3-1s-1.4,0.2-1.9,0.6c-0.6,0.4-1,0.9-1.3,1.6c-0.3,0.7-0.4,1.3-0.3,1.9c0.1,0.6,0.4,1.2,1,1.7
	c0.6,0.5,1.4,0.7,2.6,0.7c1.6,0,3.1-0.9,4.5-2.6c1.4-1.7,2.6-4,3.8-6.8c1.2-2.8,2.4-6,3.5-9.7c1.1-3.6,2.3-7.4,3.6-11.2
	c1.3-3.8,2.6-7.6,4.1-11.3c1.4-3.7,3.1-7.1,4.9-10c1.8-3,3.8-5.5,6-7.4c2.2-1.9,4.8-3.1,7.7-3.4c-3-0.7-6-1.4-9-2.3
	c-3-0.8-5.9-1.4-8.7-1.7c-2.8-0.3-5.6-0.3-8.2,0.1c-2.6,0.4-5.1,1.5-7.5,3.2c-2.7,1.9-4.9,4.3-6.5,7.1c-1.6,2.8-2.8,5.7-3.6,8.8
	c-0.8,3.1-1.2,6.2-1.1,9.2c0,3.1,0.4,5.8,1,8.3c0.7,2.5,1.6,4.4,2.9,5.9s2.7,2.3,4.4,2.3c1,0,1.8-0.4,2.5-1.1
	c0.6-0.7,0.9-1.5,0.9-2.5c0-0.9-0.4-1.7-1.2-2.5c-0.8-0.7-2.2-1.1-4.2-1.1c0-1.1,0.3-2.1,0.9-2.9c0.6-0.8,1.4-1.4,2.3-1.9
	c0.9-0.4,1.9-0.7,3-0.7c1.1,0,2.1,0.2,3,0.7c0.9,0.4,1.7,1.1,2.3,2.1c0.6,0.9,0.9,2.2,0.9,3.7c0,1.4-0.3,2.8-1,4
	c-0.7,1.2-1.5,2.3-2.6,3.2c-1.1,0.9-2.4,1.6-3.8,2.1c-1.4,0.5-2.9,0.8-4.4,0.8c-4,0-7.3-0.9-9.8-2.8c-2.5-1.9-4.3-4.3-5.3-7.3
	c-1-3-1.4-6.4-1-10.1c0.3-3.7,1.4-7.5,3-11.3c1.7-3.8,4-7.4,6.9-10.8C54.9,76.7,58.5,73.9,62.6,71.5z"/>
<path class="st0" d="M111.3,99.8l-1.3,4.2l8.1-5.4c-0.4,2.3-0.4,4,0,5.2c0.3,1.2,0.9,2.1,1.7,2.6s1.6,0.8,2.6,0.7
	c1-0.1,2-0.4,2.9-0.8c-2,2.4-4,4.2-5.8,5.3c-1.9,1.2-3.6,1.8-5,1.9c-1.5,0.1-2.7-0.3-3.7-1.3c-1-1-1.6-2.5-1.8-4.5l-8.3,27.9H92
	l10.8-35.9H111.3z"/>
<path class="st0" d="M156.6,113.8c2.7,1.8,4.5,3.9,5.3,6.4c0.9,2.5,0.9,4.9,0.2,7.1c-0.7,2.3-2.1,4.2-4.3,5.8
	c-2.2,1.6-5,2.4-8.5,2.4c-2.4,0-4.5-0.8-6.2-2.3c-1.8-1.5-2.8-3.3-3.1-5.3c-1.7,1.9-3.7,3.7-6,5.1c-2.3,1.5-4.9,2.2-7.8,2.2
	c-3,0-5.2-0.9-6.8-2.6c-1.6-1.8-2.6-3.9-2.9-6.6c-0.3-2.6-0.1-5.5,0.6-8.5c0.8-3.1,2-5.9,3.8-8.5c1.8-2.6,4-4.8,6.7-6.6
	c2.7-1.8,5.8-2.6,9.3-2.6c2.1,0,3.6,0.6,4.6,1.8c1,1.2,1.5,2.7,1.6,4.4c0,1.7-0.4,3.6-1.2,5.6c-0.8,2-2,3.8-3.5,5.5
	c-1.5,1.6-3.4,2.9-5.6,3.9c-2.2,1-4.6,1.3-7.2,1c-0.2,2.4,0,4.4,0.6,6c0.6,1.6,1.7,2.5,3.5,2.5c2.1,0,4.1-0.7,6-2s3.5-2.8,5-4.4
	c0.8-1.9,2-3.2,3.6-3.7c1.6-0.5,3.1-0.5,4.6,0c1.5,0.5,2.6,1.4,3.5,2.7c0.9,1.3,1,2.8,0.3,4.5c-1.2-1.1-2.3-1.5-3.3-1.2
	c-1,0.3-1.7,0.9-2.1,1.8c-0.4,0.8-0.5,1.7-0.2,2.7c0.3,0.9,1.1,1.5,2.4,1.7c1.5,0.2,2.8-0.2,3.7-1.1c1-0.9,1.6-2,1.9-3.4
	c0.3-1.4,0.2-2.8-0.3-4.2s-1.4-2.7-2.8-3.7c-2.5-1.7-4.2-3.7-5.1-6.1c-1-2.4-1.2-4.6-0.7-6.7c0.5-2.1,1.8-4,3.8-5.5
	c2-1.5,4.8-2.3,8.3-2.3c3.1,0,5.4,0.8,7.1,2.4c1.6,1.6,2.1,3.6,1.5,6.1c-0.6,1.9-1.6,3.2-3,3.9c-1.4,0.7-2.9,1-4.2,0.7
	c-1.4-0.3-2.5-0.9-3.4-2c-0.9-1.1-1-2.5-0.3-4.3c1.3,0.9,2.4,1.3,3.3,0.9c0.9-0.3,1.5-0.8,1.8-1.6c0.3-0.7,0.3-1.5-0.1-2.2
	c-0.4-0.8-1.3-1.1-2.7-1.1c-1.3,0-2.3,0.4-3.2,1.2c-0.9,0.8-1.5,1.8-1.7,2.9c-0.3,1.2-0.2,2.4,0.3,3.7
	C154.1,111.6,155.1,112.8,156.6,113.8z M135,102.5c-0.8,0-1.7,0.5-2.6,1.5c-0.9,1-1.8,2.3-2.6,3.9c-0.8,1.6-1.6,3.3-2.2,5.3
	c-0.7,2-1.2,3.9-1.6,5.8c1.1,0.4,2.1,0.2,3.2-0.4c1-0.7,2-1.6,2.9-2.8c0.9-1.2,1.7-2.6,2.3-4.1c0.7-1.5,1.1-2.9,1.4-4.3
	c0.3-1.4,0.4-2.5,0.3-3.4C136,102.9,135.6,102.5,135,102.5z"/>
<path class="st0" d="M188.6,78.1l-8.3,27.9c1.3-1.8,2.6-3.3,4.1-4.5c1.5-1.2,3-1.7,4.7-1.7c2.1,0,3.3,0.7,3.8,2.2
	c0.4,1.4,0.5,3.2,0,5.4c-0.4,2.1-1.1,4.5-2,7c-0.9,2.5-1.8,4.9-2.6,7c-0.8,2.1-1.3,3.9-1.6,5.4s0.1,2.2,1,2.2c0.7,0,1.5-0.3,2.5-0.8
	s2.4-1.7,3.2-3.3h1c-0.8,2-1.7,3.6-2.7,5c-1,1.4-2.1,2.5-3.2,3.3c-1.1,0.9-2.1,1.5-3.2,1.8c-1,0.4-2,0.6-2.8,0.6
	c-1.6,0-2.8-0.4-3.5-1.2c-0.7-0.8-1.1-1.9-1.2-3.3c-0.1-1.4,0-2.9,0.4-4.7c0.4-1.7,0.9-3.5,1.5-5.3c0.6-1.8,1.2-3.6,1.9-5.3
	c0.7-1.7,1.2-3.3,1.7-4.7c0.4-1.4,0.7-2.5,0.8-3.3c0.1-0.8-0.1-1.2-0.6-1.2c-0.6,0-1.1,0.4-1.7,1.2c-0.6,0.8-1.2,1.8-1.8,3
	c-0.6,1.2-1.2,2.5-1.7,3.8c-0.5,1.3-1,2.5-1.5,3.7l-5.3,17.7H163l17.1-57.6H188.6z"/>
<path class="st0" d="M202.7,123.2c-0.8,2.4-1,3.9-0.9,4.6c0.2,0.7,0.5,1.1,1,1.2c0.7,0.2,1.6,0,2.6-0.7c1-0.7,2.6-1.8,3.3-3.4h0.9
	c-0.8,2-1.6,3.6-2.6,5c-1,1.4-2.1,2.5-3.2,3.3c-1.1,0.9-2.2,1.5-3.2,1.8c-1,0.4-2,0.6-2.8,0.6c-0.9,0-1.7-0.2-2.5-0.5
	c-0.8-0.3-1.4-1-1.9-1.8c-0.5-0.9-0.7-2.1-0.7-3.7c0-1.6,0.4-3.7,1.1-6.2l13.6-45.1h8.6c-2.3,7.5-4.3,14.4-6.1,20.7
	c-0.8,2.6-1.6,5.3-2.4,8c-0.8,2.7-1.5,5.1-2.2,7.4c-0.7,2.2-1.2,4.2-1.7,5.8C203.3,121.5,202.9,122.6,202.7,123.2z"/>
<path class="st0" d="M213.5,145c1.4-1.2,2.8-4.8,3.4-6.9c0.6-2,1.1-4,1.7-5.8c-1.6,2.1-3.4,3.2-5.5,3.2c-0.9,0-1.7-0.2-2.5-0.5
	c-0.8-0.3-1.4-1-1.9-1.8c-0.5-0.9-0.7-2.1-0.7-3.7c0-1.6,0.5-3.7,1.3-6.2l7.1-23.4h8.5c-1.1,3.5-2,6.8-2.9,9.8
	c-0.8,2.6-1.6,5.3-2.4,7.8c-0.8,2.6-1.3,4.5-1.7,5.8c-0.8,2.4-1.1,3.9-1,4.7c0.1,0.7,0.3,1.1,0.8,1.1c0.3,0,0.8-0.5,1.5-1.4
	c0.7-0.9,1.2-2,1.7-3.2c0.8-2.8,1.7-5.6,2.5-8.4c0.9-2.9,1.7-5.5,2.4-7.9c0.8-2.8,1.6-5.5,2.4-8.2h8.6c-1.1,3.7-2.2,7.5-3.3,11.3
	c-0.9,3.3-2,6.8-3.1,10.6c-1.1,3.8-2.2,7.4-3.3,10.8c-0.8,2.7-1.7,5.3-2.7,7.6c-1,2.4-2.8,6.6-4.4,8.9c-1.4,2-5.6,7.9-11.4,10.8"/>
<path class="st0" d="M196.5,151.2c2,0.7,3.8,0.9,5.4,0.8c1.6-0.2,2.9-0.7,3.9-1.4c1-0.8,1.7-1.7,2.1-2.7c0.4-1.1,0.4-2.1,0.1-3.2
	c-0.3-1-1.1-2-2.2-2.8c-1.1-0.9-2.7-1.4-4.6-1.7c-3-0.4-5.6,0.1-7.6,1.3c-2.1,1.3-3.4,3-4.1,5.2c-0.7,2.2-0.5,4.7,0.5,7.5
	c1,2.7,3.1,5.4,6.2,7.9c3.9,3.1,6.8,6.7,8.6,10.6c1.8,3.9,2.8,7.9,2.9,11.9c0.1,4-0.6,7.8-2.1,11.5c-1.5,3.7-3.6,6.9-6.4,9.6
	c-2.7,2.7-6,4.8-9.9,6.3c-3.9,1.4-8.1,1.9-12.8,1.3c-4.7-0.6-8.4-2-11.2-4.2c-2.8-2.3-4.9-4.9-6.1-8c-1.3-3.1-1.7-6.3-1.5-9.8
	c0.3-3.4,1.2-6.6,2.7-9.5c1.5-2.9,3.7-5.3,6.4-7.2c2.7-1.9,6-2.8,9.7-2.8c2.5,0,4.5,0.5,6,1.5c1.6,1,2.8,2.2,3.6,3.6
	c0.8,1.4,1.2,3,1.3,4.7c0,1.7-0.3,3.3-1,4.7c-0.7,1.4-1.7,2.7-3.1,3.6c-1.4,1-3.1,1.4-5.1,1.4c0.8-1.2,1.1-2.4,0.9-3.5
	c-0.1-1.1-0.5-2.1-1.2-3c-0.7-0.9-1.5-1.5-2.6-2c-1.1-0.5-2.2-0.6-3.5-0.5c-1.9,0.1-3.6,0.7-4.9,2c-1.3,1.3-2.3,2.9-3,4.8
	c-0.7,1.9-0.9,4-0.8,6.2s0.7,4.4,1.7,6.4c1,2,2.5,3.7,4.5,5.2c1.9,1.4,4.4,2.4,7.5,2.7c3.1,0.4,5.9,0,8.5-1.1
	c2.6-1.1,4.8-2.8,6.7-4.9s3.3-4.6,4.4-7.4c1-2.8,1.5-5.7,1.5-8.6c0-2.9-0.7-5.8-1.9-8.5c-1.3-2.8-3.2-5.2-5.9-7.2
	c-2.7-2.1-4.8-4.4-6.4-6.9c-1.6-2.5-2.6-5.1-3-7.7c-0.4-2.6-0.3-5.2,0.3-7.6c0.7-2.5,1.9-4.7,3.6-6.6c1.7-1.9,4-3.5,6.8-4.6
	c2.8-1.2,6.1-1.7,9.9-1.7c3.1,0,5.7,0.6,7.7,1.8c2.1,1.2,3.6,2.7,4.7,4.5c1.1,1.8,1.7,3.8,1.8,5.8c0.1,2.1-0.3,4-1.1,5.8
	s-2.2,3.3-4.1,4.5c-1.8,1.2-4.1,1.8-6.9,1.8c-1.8,0-3.2-0.3-4.4-1c-1.2-0.7-2-1.5-2.6-2.5c-0.6-1-0.8-2.1-0.8-3.2
	C195.5,153,195.9,152,196.5,151.2z"/>
<path class="st0" d="M224.4,222.2h-8.6l6-20.2c-1.3,1.1-2.6,2-4.1,2.6c-1.4,0.7-2.8,1-4.2,1c-1.3,0-2.3-0.4-3.2-1.2
	c-0.8-0.8-1.4-2-1.6-3.6c-0.2-1.6,0-3.6,0.6-6.1c0.6-2.5,1.6-5.3,3-8.6c1.4-3.3,3.3-6.2,5.5-8.5c2.2-2.4,4.6-4.2,7.1-5.5
	c2.5-1.3,5-2.1,7.6-2.4c2.5-0.3,4.9,0.1,6.9,1L224.4,222.2z M219.6,198.5c0.6,0,1.2-0.2,2-0.7c0.8-0.4,1.4-0.8,1.9-1.2l6.5-21.7
	c-0.4-0.2-0.8-0.3-1.2-0.3c-1,0-2,0.6-3.1,1.7c-1.1,1.2-2.1,2.6-3,4.4c-0.9,1.8-1.8,3.7-2.5,5.8c-0.8,2-1.3,4-1.7,5.8
	c-0.3,1.8-0.5,3.3-0.3,4.4C218.2,197.9,218.7,198.5,219.6,198.5z"/>
<path class="st0" d="M258.4,193.4c-0.4,1.2-0.6,2.2-0.8,2.9c-0.1,0.7-0.1,1.3,0,1.7c0.1,0.4,0.3,0.7,0.5,0.9
	c0.2,0.2,0.5,0.3,0.7,0.3c0.6,0.2,1.4,0,2.5-0.7c1.1-0.7,3-1.8,3.7-3.4h1c-0.8,2-2.2,3.6-3.2,5c-1,1.4-2.1,2.5-3.2,3.3
	c-1.1,0.9-2.1,1.5-3.2,1.8c-1,0.4-2,0.6-2.9,0.6c-0.6,0-1.2-0.1-1.8-0.3c-0.6-0.2-1.1-0.5-1.6-0.9c-0.5-0.4-0.8-1-1.1-1.8
	c-0.3-0.8-0.4-1.7-0.4-2.9c-1.1,2-2.2,3.4-3.3,4.4c-1.1,1-2.4,1.5-3.9,1.5c-0.8,0-1.6-0.2-2.4-0.5c-0.8-0.3-1.4-1-1.8-1.8
	c-0.4-0.9-0.7-2.1-0.7-3.7c0-1.6,0.4-3.7,1.1-6.2l7.1-23.4h8.5c-1.1,3.5-2,6.8-2.9,9.8c-0.8,2.6-1.6,5.3-2.4,7.8
	c-0.8,2.6-1.3,4.5-1.7,5.8c-0.8,2.4-1.1,3.9-0.9,4.7c0.2,0.7,0.4,1.1,0.7,1.1c0.4,0,0.9-0.5,1.7-1.6c0.7-1.1,1.3-2.2,1.8-3.5
	l0.2-0.7l7.3-23.4h8.5c-1.1,3.5-2.1,6.8-3,9.8c-0.8,2.6-1.6,5.3-2.4,7.8C259.3,190.3,258.8,192.2,258.4,193.4z"/>
<path class="st0" d="M285.5,170c2.1,0,3.6,0.6,4.6,1.8c1,1.2,1.5,2.7,1.6,4.4c0,1.7-0.4,3.6-1.2,5.6c-0.8,2-2,3.8-3.5,5.5
	c-1.5,1.6-3.4,2.9-5.6,3.9c-2.2,1-4.6,1.3-7.2,1c-0.2,2.4,0,4.4,0.6,6c0.6,1.6,1.7,2.5,3.5,2.5c2.1,0,4-0.6,5.9-1.9
	c1.9-1.3,3.5-2.7,5-4.4c1.6-1.9,3.1-4,4.5-6.4h1.5c-1.5,3.3-3.3,6.3-5.4,8.8c-0.9,1.1-1.9,2.2-2.9,3.3c-1.1,1-2.2,2-3.5,2.8
	c-1.3,0.8-2.6,1.5-4.1,2c-1.4,0.5-3,0.8-4.5,0.8c-3,0-5.2-0.9-6.8-2.6c-1.6-1.8-2.6-3.9-2.9-6.6c-0.3-2.6-0.1-5.5,0.6-8.5
	s2-5.9,3.8-8.5c1.8-2.6,4-4.8,6.7-6.6C278.8,170.9,281.9,170,285.5,170z M283.5,172.7c-0.8,0-1.7,0.5-2.6,1.5s-1.8,2.3-2.6,3.9
	c-0.8,1.6-1.6,3.3-2.2,5.3c-0.7,2-1.2,3.9-1.6,5.8c1.1,0.4,2.1,0.2,3.2-0.4c1-0.7,2-1.6,2.9-2.8c0.9-1.2,1.7-2.6,2.3-4.1
	c0.7-1.5,1.1-2.9,1.4-4.3c0.3-1.4,0.4-2.5,0.3-3.4C284.5,173.1,284.1,172.7,283.5,172.7z"/>
<path class="st0" d="M312.3,170c2.1,0,3.6,0.6,4.6,1.8c1,1.2,1.5,2.7,1.6,4.4c0,1.7-0.4,3.6-1.2,5.6c-0.8,2-2,3.8-3.5,5.5
	c-1.5,1.6-3.4,2.9-5.6,3.9c-2.2,1-4.6,1.3-7.2,1c-0.2,2.4,0,4.4,0.6,6c0.6,1.6,1.7,2.5,3.5,2.5c2.1,0,4-0.6,5.9-1.9
	c1.9-1.3,3.5-2.7,5-4.4c1.6-1.9,3.1-4,4.5-6.4h1.5c-1.5,3.3-3.3,6.3-5.4,8.8c-0.9,1.1-1.9,2.2-2.9,3.3c-1.1,1-2.2,2-3.5,2.8
	c-1.3,0.8-2.6,1.5-4.1,2c-1.4,0.5-3,0.8-4.5,0.8c-3,0-5.2-0.9-6.8-2.6c-1.6-1.8-2.6-3.9-2.9-6.6c-0.3-2.6-0.1-5.5,0.6-8.5
	s2-5.9,3.8-8.5c1.8-2.6,4-4.8,6.7-6.6C305.7,170.9,308.8,170,312.3,170z M310.4,172.7c-0.8,0-1.7,0.5-2.6,1.5s-1.8,2.3-2.6,3.9
	c-0.8,1.6-1.6,3.3-2.2,5.3c-0.7,2-1.2,3.9-1.6,5.8c1.1,0.4,2.1,0.2,3.2-0.4c1-0.7,2-1.6,2.9-2.8c0.9-1.2,1.7-2.6,2.3-4.1
	c0.7-1.5,1.1-2.9,1.4-4.3c0.3-1.4,0.4-2.5,0.3-3.4C311.3,173.1,311,172.7,310.4,172.7z"/>
<path class="st0" d="M334.2,191.7c0.1,2.1,0.5,3.8,1,5.3c0.6,1.4,1.4,2.2,2.5,2.2c0.7,0,1.5-0.3,2.5-0.8c1-0.6,3.3-1.7,4-3.3h0.9
	c-0.8,2-2.6,3.6-3.6,5c-1,1.4-2,2.5-3.1,3.3c-1.1,0.9-2.1,1.5-3.2,1.8c-1,0.4-2,0.6-2.9,0.6c-1.4,0-2.6-0.5-3.6-1.5
	c-1-1-1.8-2.4-2.4-4.2l-8.3,5.9H314l23.7-28.6c-1.6,0.4-3.1,0.6-4.4,0.5c-1.3-0.1-2.6-0.2-3.8-0.2c-1.2,0-2.3,0.3-3.4,0.8
	c-1.1,0.5-2.2,1.6-3.3,3.2c1.8-3.5,3.6-6,5.4-7.7c1.8-1.7,3.4-2.8,5-3.4c1.6-0.6,3.1-0.8,4.5-0.7c1.4,0.2,2.8,0.4,4.1,0.7
	c1.3,0.3,2.4,0.5,3.5,0.5c1.1,0.1,2-0.3,2.9-1l-22.9,27.5L334.2,191.7z"/>
<path class="st0" d="M364.3,170c2.1,0,3.6,0.6,4.6,1.8c1,1.2,1.5,2.7,1.6,4.4c0,1.7-0.4,3.6-1.2,5.6c-0.8,2-2,3.8-3.5,5.5
	c-1.5,1.6-3.4,2.9-5.6,3.9c-2.2,1-4.6,1.3-7.2,1c-0.2,2.4,0,4.4,0.6,6c0.6,1.6,1.7,2.5,3.5,2.5c2.1,0,4-0.6,5.9-1.9
	c1.9-1.3,3.5-2.7,5-4.4c1.6-1.9,3.1-4,4.5-6.4h1.5c-1.5,3.3-3.3,6.3-5.4,8.8c-0.9,1.1-1.9,2.2-2.9,3.3c-1.1,1-2.2,2-3.5,2.8
	c-1.3,0.8-2.6,1.5-4.1,2c-1.4,0.5-3,0.8-4.5,0.8c-3,0-5.2-0.9-6.8-2.6c-1.6-1.8-2.6-3.9-2.9-6.6c-0.3-2.6-0.1-5.5,0.6-8.5
	s2-5.9,3.8-8.5c1.8-2.6,4-4.8,6.7-6.6C357.7,170.9,360.8,170,364.3,170z M362.3,172.7c-0.8,0-1.7,0.5-2.6,1.5
	c-0.9,1-1.8,2.3-2.6,3.9c-0.8,1.6-1.6,3.3-2.2,5.3c-0.7,2-1.2,3.9-1.6,5.8c1.1,0.4,2.1,0.2,3.2-0.4c1-0.7,2-1.6,2.9-2.8
	c0.9-1.2,1.7-2.6,2.3-4.1c0.7-1.5,1.1-2.9,1.4-4.3c0.3-1.4,0.4-2.5,0.3-3.4C363.3,173.1,363,172.7,362.3,172.7z"/>
<path class="st0" d="M394,193.4c-0.8,2.4-1,3.9-0.9,4.6c0.2,0.7,0.6,1.1,1.1,1.2c0.7,0.2,1.5,0,2.5-0.7c1-0.7,1.9-1.8,2.6-3.4h1.6
	c-0.8,2-1.7,3.6-2.7,5c-1,1.4-2.1,2.5-3.2,3.3c-1.1,0.9-2.2,1.5-3.2,1.8c-1,0.4-2,0.6-2.8,0.6c-1.3,0-2.4-0.3-3.4-1
	c-1-0.7-1.6-2-1.7-4.1c-1.3,1.4-2.8,2.7-4.5,3.6c-1.8,1-3.5,1.5-5.3,1.5c-1.3,0-2.3-0.4-3.1-1.2c-0.8-0.8-1.3-2-1.5-3.6
	c-0.2-1.6,0-3.6,0.5-6.1c0.5-2.5,1.5-5.3,3-8.6c1-2.3,2.2-4.4,3.6-6.3c1.4-1.9,3-3.5,4.7-4.9c1.7-1.4,3.5-2.5,5.3-3.3
	c1.8-0.8,3.6-1.4,5.5-1.7l6.5-21.7h8.6c-2.3,7.5-4.3,14.4-6.1,20.7c-0.8,2.6-1.5,5.3-2.3,8c-0.8,2.7-1.5,5.1-2.2,7.4
	c-0.7,2.2-1.2,4.2-1.7,5.8C394.6,191.7,394.2,192.8,394,193.4z M384.5,196.4c0.1-0.5,0.2-1,0.3-1.5c0.1-0.5,0.2-1,0.4-1.6l5.6-18.5
	c-0.4-0.2-0.8-0.3-1.3-0.3c-1,0-2,0.6-3.1,1.7c-1.1,1.2-2.1,2.6-3,4.4c-0.9,1.8-1.8,3.7-2.6,5.8c-0.8,2-1.4,4-1.7,5.8
	c-0.3,1.8-0.4,3.3-0.3,4.4c0.2,1.2,0.6,1.7,1.5,1.7c0.7,0,1.5-0.3,2.3-0.8C383.4,197.2,384.1,196.8,384.5,196.4z"/>
<path class="st1" d="M162.9,155.9c3.2-1.3-16.1,14.8-22.1,46.5c-0.9,4.8-2.4,9.5-4.7,13.9c-3.2,6.4-8.2,12.9-14.5,10.5
	c-2-0.8-3.6-2.3-4.7-4.2c-2.5-4.4-5.6-14.5,2.8-30.3c4-7.5,9.6-14.1,16.2-19.5C142.6,167.5,152.7,160.1,162.9,155.9z"/>
<path class="st0" d="M158.2,149c-6-2.6-25-9.3-42.9,1.2c-2.5,1.5-4.6,3.6-5.8,6.3c-0.9,2.2-1.4,4.8,0,7.3c1.3,2.4,4.1,3.6,6.8,3.5
	c3.5-0.2,9.4-1.3,15.5-5.6c9.2-6.5,13.4-10.2,26.2-11.6C158.6,150,158.7,149.2,158.2,149z"/>
<path class="st1" d="M236.8,145.1c-0.7,4.3,12.1-22.6,42.8-32.8c4.7-1.5,9.1-3.9,13.1-7.2c5.8-4.7,11.5-11.8,8.1-20.2
	c-1.1-2.7-3-4.7-5-6c-4.8-3-15.5-6.7-29.9,5.7c-6.8,5.9-12.4,13.9-16.7,23.1C244.9,117,239.3,131.1,236.8,145.1z"/>
<path class="st0" d="M239.8,149.2c4.5-5.1,19.8-19.5,44.8-13.5c3.5,0.8,7,2.6,9.9,5.4c2.3,2.2,4.5,5.1,4.6,8.5
	c0.1,3.2-1.9,5.6-4.8,6.4c-3.7,1-10.4,1.8-19.4-1.1c-13.6-4.4-20.2-7.3-34.2-4.4C240,150.6,239.4,149.7,239.8,149.2z"/>
</svg>
