<?xml version="1.0" encoding="utf-8"?>
<!-- Generator: Adobe Illustrator 19.1.0, SVG Export Plug-In . SVG Version: 6.00 Build 0)  -->
<svg version="1.1" id="Layer_1" xmlns="http://www.w3.org/2000/svg" xmlns:xlink="http://www.w3.org/1999/xlink" x="0px" y="0px"
	 viewBox="0 0 44.5 47.4" style="enable-background:new 0 0 44.5 47.4;" xml:space="preserve">
<style type="text/css">
	.st0{fill:none;stroke:#000000;stroke-width:1.2675;}
</style>
<g>
	<path class="st0" d="M4.2,2.7h16.3c2.9,0,5.5,0.5,7.8,1.6c2.3,1.1,4.3,2.6,5.9,4.5c1.6,1.9,2.9,4.1,3.8,6.5c0.9,2.5,1.3,5.1,1.3,8
		c0,2.9-0.5,5.7-1.4,8.2c-0.9,2.5-2.2,4.7-3.9,6.6c-1.7,1.9-3.6,3.3-5.9,4.4c-2.3,1.1-4.8,1.6-7.6,1.6H4.2V2.7z"/>
</g>
<rect x="4.2" y="2.7" class="st0" width="10.2" height="41.4"/>
<circle class="st0" cx="19.4" cy="18.4" r="5"/>
<path class="st0" d="M23.4,15.4c1.2,1.1,2.4,6.5,2.4,9.4c0,2.9-0.5,5.7-1.4,8.2c-0.9,2.5-2.2,4.7-3.9,6.6c-1.7,1.9-3.6,3.3-5.9,4.4"
	/>
<path class="st0" d="M14.3,9.7c0.2-0.1,0.4-0.1,0.6-0.1c6.5-1.5,13,2.4,14.8,8.8c0.6,2.2,1.2,4.6,1.2,6c0,2.9-0.6,6.1-1.5,8.6
	c-0.9,2.5-5.5,9.9-9.6,11"/>
<path class="st0" d="M14.6,6.3c0.2-0.1,0.5-0.1,0.7-0.2c8.6-1.7,16.9,3.9,18.9,12.4c0.5,2.2,1.9,9-0.6,14.5
	c-1.1,2.4-2.2,4.7-3.9,6.6c-1.7,1.9-3.9,3.2-6.2,4.3"/>
</svg>
